<svg width="860" height="1864" viewBox="0 0 860 1864" fill="none" xmlns="http://www.w3.org/2000/svg" xmlns:xlink="http://www.w3.org/1999/xlink">
<path d="M0,60C0,26.863 26.863,0 60,0L800,0C833.138,0 860,26.863 860,60L860,1804C860,1837.138 833.138,1864 800,1864L60,1864C26.863,1864 0,1837.138 0,1804L0,60Z" fill="#A42FC1"/>
<path d="M0,60C0,26.863 26.863,0 60,0L800,0C833.138,0 860,26.863 860,60L860,1804C860,1837.138 833.138,1864 800,1864L60,1864C26.863,1864 0,1837.138 0,1804L0,60Z" fill="#A42FC1"/>
<path d="M0,60C0,26.863 26.863,0 60,0L800,0C833.138,0 860,26.863 860,60L860,1804C860,1837.138 833.138,1864 800,1864L60,1864C26.863,1864 0,1837.138 0,1804L0,60Z" fill="#A42FC1"/>
<path d="M0,60C0,26.863 26.863,0 60,0L800,0C833.138,0 860,26.863 860,60L860,1804C860,1837.138 833.138,1864 800,1864L60,1864C26.863,1864 0,1837.138 0,1804L0,60Z" fill="#A42FC1"/>
<path d="M0,60C0,26.863 26.863,0 60,0L800,0C833.138,0 860,26.863 860,60L860,1804C860,1837.138 833.138,1864 800,1864L60,1864C26.863,1864 0,1837.138 0,1804L0,60Z" fill="#A42FC1"/>
<path d="M0,60C0,26.863 26.863,0 60,0L800,0C833.138,0 860,26.863 860,60L860,1804C860,1837.138 833.138,1864 800,1864L60,1864C26.863,1864 0,1837.138 0,1804L0,60Z" fill="#A42FC1"/>
</svg>
